<svg width="45" height="45" viewBox="0 0 45 45" fill="none" xmlns="http://www.w3.org/2000/svg">
<rect width="45" height="45" rx="22.5" fill="#0255B1"/>
<path d="M19.4481 14.1403L18.9448 13.0078C18.6157 12.2674 18.4512 11.8971 18.2051 11.6138C17.8967 11.2587 17.4946 10.9974 17.0449 10.8598C16.686 10.75 16.2809 10.75 15.4706 10.75C14.2852 10.75 13.6925 10.75 13.195 10.9779C12.6089 11.2463 12.0796 11.8291 11.8687 12.4382C11.6897 12.9554 11.741 13.4868 11.8435 14.5496C12.9352 25.8627 19.1376 32.0651 30.4506 33.1567C31.5135 33.2594 32.045 33.3106 32.562 33.1316C33.1713 32.9208 33.754 32.3914 34.0225 31.8054C34.2503 31.3077 34.2503 30.7151 34.2503 29.5297C34.2503 28.7194 34.2503 28.3142 34.1405 27.9554C34.0029 27.5056 33.7416 27.1036 33.3865 26.7952C33.1033 26.5491 32.733 26.3846 31.9925 26.0555L30.86 25.5521C30.0581 25.1957 29.6571 25.0176 29.2498 24.9789C28.8598 24.9417 28.4666 24.9965 28.1016 25.1386C27.7203 25.2871 27.3833 25.568 26.709 26.1297C26.038 26.689 25.7025 26.9686 25.2925 27.1184C24.929 27.2511 24.4485 27.3004 24.0658 27.2439C23.6339 27.1803 23.3033 27.0036 22.6419 26.6501C20.5844 25.5506 19.4497 24.416 18.3501 22.3584C17.9967 21.6971 17.82 21.3664 17.7564 20.9346C17.7 20.5518 17.7492 20.0712 17.8819 19.7079C18.0317 19.2978 18.3113 18.9623 18.8705 18.2912C19.4323 17.6171 19.7132 17.28 19.8617 16.8986C20.0039 16.5337 20.0586 16.1405 20.0215 15.7506C19.9827 15.3432 19.8045 14.9422 19.4481 14.1403Z" stroke="#F4F4F4" stroke-width="2" stroke-linecap="round"/>
</svg>
