<svg width="60" height="60" viewBox="0 0 60 60" fill="none" xmlns="http://www.w3.org/2000/svg">
<g id="Frame">
<path id="Vector" d="M55 28.9167C55 42.1247 43.8055 52.8335 30 52.8335C28.3768 52.8357 26.758 52.6855 25.1635 52.3863C24.0158 52.1705 23.4419 52.0627 23.0413 52.124C22.6407 52.1852 22.073 52.487 20.9375 53.091C17.7254 54.7993 13.9799 55.4025 10.3778 54.7325C11.7469 53.0485 12.6819 51.028 13.0945 48.862C13.3445 47.537 12.725 46.25 11.7972 45.3078C7.58333 41.0288 5 35.2627 5 28.9167C5 15.7089 16.1944 5 30 5C43.8055 5 55 15.7089 55 28.9167Z" stroke="#F4F4F4" stroke-width="4" stroke-linejoin="round"/>
<path id="Vector_2" d="M29.9887 30H30.0113M39.9775 30H40M20 30H20.0224" stroke="#F4F4F4" stroke-width="4" stroke-linecap="round" stroke-linejoin="round"/>
</g>
</svg>
