<svg width="50" height="50" viewBox="0 0 50 50" fill="none" xmlns="http://www.w3.org/2000/svg">
<g id="Oil">
<path id="Vector" d="M39.5827 25.2694L26.9552 37.9311C23.2404 41.6559 21.3829 43.5184 19.1034 43.7242C18.7265 43.7584 18.3474 43.7584 17.9705 43.7242C15.6909 43.5184 13.8335 41.6559 10.1186 37.9311L5.9095 33.7105C3.58485 31.3794 3.58485 27.6003 5.9095 25.2694M39.5827 25.2694L22.746 8.38707M39.5827 25.2694H5.9095M5.9095 25.2694L22.746 8.38707M22.746 8.38707L18.537 4.1665" stroke="#F4F4F4" stroke-width="3" stroke-linecap="round" stroke-linejoin="round"/>
<path id="Vector_2" d="M45.8333 41.6665C45.8333 43.9678 43.9679 45.8332 41.6667 45.8332C39.3654 45.8332 37.5 43.9678 37.5 41.6665C37.5 39.3653 41.6667 35.4165 41.6667 35.4165C41.6667 35.4165 45.8333 39.3653 45.8333 41.6665Z" stroke="#F4F4F4" stroke-width="3" stroke-linecap="round" stroke-linejoin="round"/>
</g>
</svg>
