<svg width="35" height="35" viewBox="0 0 35 35" fill="none" xmlns="http://www.w3.org/2000/svg">
<path d="M17.5 32.0834C25.554 32.0834 32.0833 25.5541 32.0833 17.5C32.0833 9.44586 25.554 2.91669 17.5 2.91669C9.4458 2.91669 2.91663 9.44586 2.91663 17.5C2.91663 25.5541 9.4458 32.0834 17.5 32.0834Z" stroke="#C30426" stroke-width="2.5"/>
<path d="M17.5114 15.3245C16.3033 15.3245 15.3239 16.3039 15.3239 17.512C15.3239 18.72 16.3033 19.6995 17.5114 19.6995C18.7194 19.6995 19.6989 18.72 19.6989 17.512C19.6989 16.3039 18.7194 15.3245 17.5114 15.3245ZM17.5114 15.3245V10.2069M21.8964 21.9039L19.0547 19.0622" stroke="#C30426" stroke-width="2.5" stroke-linecap="round" stroke-linejoin="round"/>
</svg>
