<svg width="35" height="35" viewBox="0 0 35 35" fill="none" xmlns="http://www.w3.org/2000/svg">
<path d="M2.91663 8.75L12.9981 14.4622C16.7148 16.5681 18.2851 16.5681 22.0018 14.4622L32.0833 8.75" stroke="#C30426" stroke-width="2.5" stroke-linejoin="round"/>
<path d="M2.93962 19.6519C3.03496 24.1226 3.08263 26.3578 4.73219 28.0137C6.38174 29.6695 8.67752 29.7271 13.2691 29.8425C16.0989 29.9136 18.901 29.9136 21.7309 29.8425C26.3224 29.7271 28.6181 29.6695 30.2678 28.0137C31.9173 26.3578 31.965 24.1226 32.0602 19.6519C32.091 18.2145 32.091 16.7856 32.0602 15.3481C31.965 10.8775 31.9173 8.64224 30.2678 6.9864C28.6181 5.33057 26.3224 5.27289 21.7309 5.15752C18.901 5.08641 16.0989 5.08641 13.2691 5.15751C8.67752 5.27286 6.38174 5.33054 4.73218 6.98639C3.08261 8.64222 3.03496 10.8775 2.93961 15.3481C2.90896 16.7856 2.90897 18.2145 2.93962 19.6519Z" stroke="#C30426" stroke-width="2.5" stroke-linejoin="round"/>
</svg>
