<svg width="35" height="36" viewBox="0 0 35 36" fill="none" xmlns="http://www.w3.org/2000/svg">
<path d="M17.6779 7.77717C24.6405 5.4036 28.1216 4.21682 29.9941 6.08925C31.8665 7.96167 30.6797 11.4429 28.3063 18.4054L26.6898 23.1468C24.8671 28.4939 23.9556 31.1675 22.4531 31.3887C22.0493 31.4482 21.6312 31.4125 21.2315 31.2841C19.7451 30.807 18.9594 27.988 17.3879 22.3502C17.0393 21.0997 16.8651 20.4744 16.4681 19.9968C16.3529 19.8582 16.2251 19.7305 16.0866 19.6153C15.609 19.2183 14.9837 19.044 13.7332 18.6955C8.09538 17.124 5.27647 16.3383 4.79924 14.8519C4.67094 14.4522 4.63514 14.0341 4.69462 13.6302C4.91588 12.1278 7.58946 11.2164 12.9366 9.39349L17.6779 7.77717Z" stroke="#C30426" stroke-width="2.5"/>
</svg>
