<svg width="35" height="35" viewBox="0 0 35 35" fill="none" xmlns="http://www.w3.org/2000/svg">
<path d="M13.3562 8.33034L12.7689 7.00911C12.385 6.14524 12.193 5.71328 11.9059 5.38272C11.5461 4.96845 11.0771 4.66366 10.5524 4.50311C10.1337 4.375 9.66103 4.375 8.71567 4.375C7.33273 4.375 6.64126 4.375 6.0608 4.64084C5.37705 4.95399 4.75955 5.63395 4.51351 6.34462C4.30465 6.94792 4.36448 7.56792 4.48412 8.8079C5.75773 22.0065 12.9939 29.2426 26.1924 30.5162C27.4324 30.6359 28.0525 30.6957 28.6557 30.4869C29.3665 30.2409 30.0464 29.6233 30.3596 28.9396C30.6253 28.359 30.6253 27.6676 30.6253 26.2847C30.6253 25.3393 30.6253 24.8666 30.4973 24.4479C30.3367 23.9232 30.0319 23.4542 29.6176 23.0945C29.2871 22.8073 28.8552 22.6154 27.9913 22.2314L26.67 21.6441C25.7345 21.2284 25.2667 21.0206 24.7914 20.9754C24.3364 20.932 23.8777 20.9959 23.4519 21.1617C23.007 21.335 22.6138 21.6627 21.8272 22.318C21.0443 22.9705 20.6529 23.2967 20.1746 23.4714C19.7505 23.6263 19.1899 23.6838 18.7434 23.6179C18.2395 23.5436 17.8538 23.3376 17.0822 22.9251C14.6818 21.6424 13.358 20.3187 12.0752 17.9181C11.6629 17.1466 11.4567 16.7608 11.3825 16.2571C11.3167 15.8104 11.374 15.2498 11.5289 14.8259C11.7037 14.3475 12.0299 13.956 12.6823 13.1731C13.3377 12.3866 13.6654 11.9934 13.8387 11.5484C14.0045 11.1226 14.0684 10.6639 14.0251 10.209C13.9799 9.73368 13.772 9.2659 13.3562 8.33034Z" stroke="#C30426" stroke-width="2" stroke-linecap="round"/>
</svg>
