<svg width="51" height="51" viewBox="0 0 51 51" fill="none" xmlns="http://www.w3.org/2000/svg">
<g id="Frame">
<path id="Vector" d="M8.83398 29.6665H46.334" stroke="#F4F4F4" stroke-width="3" stroke-linecap="round" stroke-linejoin="round"/>
<path id="Vector_2" d="M10.916 46.3332L12.8547 44.3944C13.9563 43.293 14.5071 42.7421 15.2011 42.429C15.8951 42.1157 16.6726 42.0671 18.2274 41.97L25.0033 41.5465C28.3335 41.3384 29.9987 41.2342 31.4639 40.5307C32.9293 39.8269 34.0516 38.5923 36.296 36.1234L42.166 29.6665H34.8743L31.1391 33.4017C30.8908 33.65 30.7664 33.7744 30.6373 33.884C29.9727 34.4486 29.1477 34.7903 28.2787 34.8611C28.1096 34.8748 27.9339 34.8748 27.5827 34.8748M27.5827 34.8748C27.5827 33.9067 27.5827 33.4228 27.5027 33.0203C27.1739 31.3673 25.8818 30.0753 24.2289 29.7465C23.8264 29.6665 23.3425 29.6665 22.3743 29.6665H20.7462C18.569 29.6665 17.4805 29.6665 16.4597 29.929C15.6993 30.1244 14.9704 30.4263 14.2946 30.8257C13.3872 31.3619 12.6175 32.1317 11.078 33.6713L4.66602 40.0832M27.5827 34.8748H20.291" stroke="#F4F4F4" stroke-width="3" stroke-linecap="round" stroke-linejoin="round"/>
<path id="Vector_3" d="M10.916 24.4582C10.916 15.2534 18.3779 7.7915 27.5827 7.7915M27.5827 7.7915C36.7875 7.7915 44.2493 15.2534 44.2493 24.4582M27.5827 7.7915V4.6665" stroke="#F4F4F4" stroke-width="3" stroke-linecap="round" stroke-linejoin="round"/>
</g>
</svg>
