<svg width="50" height="50" viewBox="0 0 50 50" fill="none" xmlns="http://www.w3.org/2000/svg">
<g id="Wheel">
<path id="Vector" d="M45.8327 24.9998C45.8327 36.5057 36.5052 45.8332 24.9994 45.8332C13.4934 45.8332 4.16602 36.5057 4.16602 24.9998C4.16602 13.4939 13.4934 4.1665 24.9994 4.1665C36.5052 4.1665 45.8327 13.4939 45.8327 24.9998Z" stroke="#F4F4F4" stroke-width="3" stroke-linecap="round" stroke-linejoin="round"/>
<path id="Vector_2" d="M38.5423 25.0002C38.5423 32.4791 32.4796 38.5418 25.0007 38.5418C17.5218 38.5418 11.459 32.4791 11.459 25.0002C11.459 17.5213 17.5218 11.4585 25.0007 11.4585C32.4796 11.4585 38.5423 17.5213 38.5423 25.0002Z" stroke="#F4F4F4" stroke-width="3" stroke-linecap="round" stroke-linejoin="round"/>
<path id="Vector_3" d="M36.7283 18.229L27.7072 23.4373M22.2945 26.5623L13.2734 31.7707" stroke="#F4F4F4" stroke-width="3" stroke-linecap="round" stroke-linejoin="round"/>
<path id="Vector_4" d="M36.7283 31.7707L27.7072 26.5623M22.2945 23.4373L13.2734 18.229" stroke="#F4F4F4" stroke-width="3" stroke-linecap="round" stroke-linejoin="round"/>
<path id="Vector_5" d="M25 11.4585V21.8752M25 28.1252V38.5418" stroke="#F4F4F4" stroke-width="3" stroke-linecap="round" stroke-linejoin="round"/>
<path id="Vector_6" d="M28.125 25C28.125 26.7258 26.7258 28.125 25 28.125C23.2742 28.125 21.875 26.7258 21.875 25C21.875 23.2742 23.2742 21.875 25 21.875C26.7258 21.875 28.125 23.2742 28.125 25Z" stroke="#F4F4F4" stroke-width="3" stroke-linecap="round" stroke-linejoin="round"/>
</g>
</svg>
