<svg width="60" height="60" viewBox="0 0 60 60" fill="none" xmlns="http://www.w3.org/2000/svg">
<g id="Frame">
<path id="Vector" d="M30 55C43.807 55 55 43.807 55 30C55 16.1929 43.807 5 30 5C16.1929 5 5 16.1929 5 30C5 43.807 16.1929 55 30 55Z" stroke="#F4F4F4" stroke-width="3.5"/>
<path id="Vector_2" d="M30.0195 26.2705C27.9485 26.2705 26.2695 27.9495 26.2695 30.0205C26.2695 32.0915 27.9485 33.7705 30.0195 33.7705C32.0905 33.7705 33.7695 32.0915 33.7695 30.0205C33.7695 27.9495 32.0905 26.2705 30.0195 26.2705ZM30.0195 26.2705V17.4976M37.5368 37.5495L32.6653 32.678" stroke="#F4F4F4" stroke-width="3.5" stroke-linecap="round" stroke-linejoin="round"/>
</g>
</svg>
