<svg width="60" height="60" viewBox="0 0 60 60" fill="none" xmlns="http://www.w3.org/2000/svg">
<g id="Frame">
<path id="Vector" d="M5 15L22.2826 24.7924C28.654 28.4025 31.346 28.4025 37.7175 24.7924L55 15" stroke="#F4F4F4" stroke-width="4" stroke-linejoin="round"/>
<path id="Vector_2" d="M5.03943 33.689C5.20285 41.353 5.28458 45.1848 8.1124 48.0235C10.9402 50.862 14.8758 50.9608 22.7471 51.1585C27.5983 51.2805 32.4018 51.2805 37.253 51.1585C45.1243 50.9608 49.0598 50.862 51.8878 48.0235C54.7155 45.1848 54.7972 41.353 54.9605 33.689C55.0132 31.2248 55.0132 28.7753 54.9605 26.311C54.7972 18.6472 54.7155 14.8152 51.8878 11.9767C49.0598 9.13808 45.1243 9.0392 37.253 8.84143C32.4018 8.71953 27.5982 8.71953 22.747 8.8414C14.8758 9.03915 10.9402 9.13803 8.11238 11.9766C5.28455 14.8152 5.20285 18.6471 5.0394 26.311C4.98685 28.7753 4.98688 31.2248 5.03943 33.689Z" stroke="#F4F4F4" stroke-width="4" stroke-linejoin="round"/>
</g>
</svg>
