<svg width="50" height="50" viewBox="0 0 50 50" fill="none" xmlns="http://www.w3.org/2000/svg">
<g id="Wrench">
<path id="Vector" d="M42.4127 27.8266C39.9346 30.3043 35.2719 30.2081 28.1227 30.2081C23.5231 30.2081 19.7939 26.4733 19.7915 21.8737C19.7915 14.7294 19.6952 10.064 22.1733 7.58637C24.6512 5.10875 25.7458 5.20906 36.7231 5.20906C37.7839 5.20452 38.3179 6.48743 37.5679 7.23754L31.9158 12.89C30.4812 14.3248 30.4773 16.6509 31.9121 18.0854C33.3469 19.52 35.6731 19.5201 37.1081 18.0858L42.7616 12.4346C43.5119 11.6847 44.795 12.2186 44.7904 13.2792C44.7904 24.2547 44.8908 25.3491 42.4127 27.8266Z" stroke="#F4F4F4" stroke-width="3"/>
<path id="Vector_2" d="M28.1256 30.2083L15.2682 43.0658C12.967 45.3669 9.23606 45.3669 6.93488 43.0658C4.63369 40.7646 4.63369 37.0335 6.93488 34.7325L19.7923 21.875" stroke="#F4F4F4" stroke-width="3" stroke-linecap="round"/>
<path id="Vector_3" d="M11.4777 38.5415H11.459" stroke="#F4F4F4" stroke-width="3" stroke-linecap="round" stroke-linejoin="round"/>
</g>
</svg>
