<svg width="51" height="51" viewBox="0 0 51 51" fill="none" xmlns="http://www.w3.org/2000/svg">
<g id="Frame">
<path id="Vector" d="M9.875 20.2915C9.875 28.9209 16.8705 35.9165 25.5 35.9165C34.1294 35.9165 41.125 28.9209 41.125 20.2915C41.125 11.662 34.1294 4.6665 25.5 4.6665C16.8705 4.6665 9.875 11.662 9.875 20.2915Z" stroke="#F4F4F4" stroke-width="3" stroke-linecap="round" stroke-linejoin="round"/>
<path id="Vector_2" d="M19.25 21.6806C19.25 21.6806 20.8125 21.6806 22.375 24.4583C22.375 24.4583 27.3383 17.5139 31.75 16.125" stroke="#F4F4F4" stroke-width="3" stroke-linecap="round" stroke-linejoin="round"/>
<path id="Vector_3" d="M35.6719 31.75L37.0681 38.4373C37.9652 42.734 38.4137 44.8823 37.4923 45.9006C36.571 46.9187 34.9708 46.0429 31.7706 44.2912L27.0342 41.6985C26.2779 41.2846 25.8998 41.0777 25.5 41.0777C25.1002 41.0777 24.7221 41.2846 23.9658 41.6985L19.2293 44.2912C16.0291 46.0429 14.429 46.9187 13.5076 45.9006C12.5862 44.8823 13.0348 42.734 13.9319 38.4373L15.3282 31.75" stroke="#F4F4F4" stroke-width="3" stroke-linejoin="round"/>
</g>
</svg>
