<svg width="50" height="50" viewBox="0 0 50 50" fill="none" xmlns="http://www.w3.org/2000/svg">
<g id="Caution">
<path id="Vector" d="M11.0863 20.1729C16.1148 11.2751 18.629 6.82622 22.0791 5.68101C23.9771 5.05099 26.0216 5.05099 27.9196 5.68101C31.3698 6.82622 33.8839 11.2751 38.9125 20.1729C43.941 29.0706 46.4552 33.5196 45.701 37.1446C45.286 39.139 44.2637 40.9477 42.7806 42.3121C40.0848 44.7919 35.0564 44.7919 24.9994 44.7919C14.9424 44.7919 9.91388 44.7919 7.21802 42.3121C5.73494 40.9477 4.71267 39.139 4.29773 37.1446C3.5435 33.5196 6.05775 29.0706 11.0863 20.1729Z" stroke="#F4F4F4" stroke-width="3"/>
<path id="Vector_2" d="M25.5052 35.4167V27.0833C25.5052 26.1013 25.5052 25.6102 25.2 25.305C24.895 25 24.404 25 23.4219 25" stroke="#F4F4F4" stroke-width="3" stroke-linecap="round" stroke-linejoin="round"/>
<path id="Vector_3" d="M24.9824 18.75H25.0012" stroke="#F4F4F4" stroke-width="3" stroke-linecap="round" stroke-linejoin="round"/>
</g>
</svg>
