<svg width="50" height="50" viewBox="0 0 50 50" fill="none" xmlns="http://www.w3.org/2000/svg">
<rect width="50" height="50" rx="25" fill="#E79BA8"/>
<path d="M22.5 20C22.5 22.357 22.5 23.5355 21.7678 24.2677C21.0355 25 19.857 25 17.5 25C15.143 25 13.9645 25 13.2322 24.2677C12.5 23.5355 12.5 22.357 12.5 20C12.5 17.643 12.5 16.4645 13.2322 15.7322C13.9645 15 15.143 15 17.5 15C19.857 15 21.0355 15 21.7678 15.7322C22.5 16.4645 22.5 17.643 22.5 20Z" stroke="#D54F67" stroke-width="3"/>
<path d="M22.5 18.75V24.3526C22.5 29.3184 19.3554 33.5296 15 35" stroke="#D54F67" stroke-width="3" stroke-linecap="round"/>
<path d="M37.5 20C37.5 22.357 37.5 23.5355 36.7677 24.2677C36.0355 25 34.857 25 32.5 25C30.143 25 28.9645 25 28.2323 24.2677C27.5 23.5355 27.5 22.357 27.5 20C27.5 17.643 27.5 16.4645 28.2323 15.7322C28.9645 15 30.143 15 32.5 15C34.857 15 36.0355 15 36.7677 15.7322C37.5 16.4645 37.5 17.643 37.5 20Z" stroke="#D54F67" stroke-width="3"/>
<path d="M37.5 18.75V24.3526C37.5 29.3184 34.3554 33.5296 30 35" stroke="#D54F67" stroke-width="3" stroke-linecap="round"/>
</svg>
