<svg width="50" height="50" viewBox="0 0 50 50" fill="none" xmlns="http://www.w3.org/2000/svg">
<g id="Temp">
<path id="Vector" d="M25.0007 45.8332C30.7536 45.8332 35.4173 41.1694 35.4173 35.4165C35.4173 32.009 33.7813 28.9836 31.2517 27.0832V10.4175C31.2517 8.47515 31.2517 7.50396 30.9342 6.73792C30.5113 5.71757 29.7007 4.90686 28.6802 4.48398C27.9142 4.1665 26.9429 4.1665 25.0007 4.1665C23.0584 4.1665 22.0871 4.1665 21.3211 4.48398C20.3007 4.90686 19.49 5.71757 19.0671 6.73792C18.7496 7.50396 18.7496 8.47515 18.7496 10.4175V27.0832C16.2201 28.9836 14.584 32.009 14.584 35.4165C14.584 41.1694 19.2477 45.8332 25.0007 45.8332Z" stroke="#F4F4F4" stroke-width="3" stroke-linejoin="round"/>
<path id="Vector_2" d="M25.0007 31.2498C22.6994 31.2498 20.834 33.1153 20.834 35.4165C20.834 37.7178 22.6994 39.5832 25.0007 39.5832C27.3019 39.5832 29.1673 37.7178 29.1673 35.4165C29.1673 33.1153 27.3019 31.2498 25.0007 31.2498ZM25.0007 31.2498V16.6665" stroke="#F4F4F4" stroke-width="3" stroke-linecap="round" stroke-linejoin="round"/>
</g>
</svg>
