<svg width="50" height="50" viewBox="0 0 50 50" fill="none" xmlns="http://www.w3.org/2000/svg">
<g id="Tune up">
<path id="Vector" d="M8.33268 25L6.96518 27.0512C5.57583 29.1352 4.88114 30.1773 4.52358 31.3583C4.16602 32.5392 4.16602 33.7917 4.16602 36.2962V42.7083C4.16602 43.679 4.16602 44.1644 4.3246 44.5473C4.53604 45.0577 4.94162 45.4633 5.4521 45.6748C5.83495 45.8333 6.32031 45.8333 7.29102 45.8333C8.26172 45.8333 8.74708 45.8333 9.12993 45.6748C9.64041 45.4633 10.046 45.0577 10.2574 44.5473C10.416 44.1644 10.416 43.679 10.416 42.7083C10.416 41.7377 10.416 41.2523 10.5746 40.8694C10.786 40.359 11.1916 39.9533 11.7021 39.7419C12.085 39.5833 12.5703 39.5833 13.541 39.5833H36.4577C37.4283 39.5833 37.9137 39.5833 38.2966 39.7419C38.8071 39.9533 39.2127 40.359 39.4241 40.8694C39.5827 41.2523 39.5827 41.7377 39.5827 42.7083C39.5827 43.679 39.5827 44.1644 39.7412 44.5473C39.9527 45.0577 40.3583 45.4633 40.8687 45.6748C41.2516 45.8333 41.7371 45.8333 42.7077 45.8333C43.6783 45.8333 44.1637 45.8333 44.5466 45.6748C45.0571 45.4633 45.4627 45.0577 45.6741 44.5473C45.8327 44.1644 45.8327 43.679 45.8327 42.7083V36.2962C45.8327 33.7917 45.8327 32.5392 45.4752 31.3583C45.1175 30.1773 44.4229 29.1352 43.0335 27.0512L41.666 25L38.4946 25.7929C37.9977 25.9171 37.7491 25.9792 37.4956 26.0104C37.2419 26.0417 36.9858 26.0417 36.4735 26.0417H13.5252C13.0129 26.0417 12.7568 26.0417 12.5032 26.0104C12.2496 25.9792 12.0011 25.9171 11.5041 25.7929L8.33268 25ZM8.33268 25L10.3359 20.1923C11.8895 16.4637 12.6663 14.5994 14.2408 13.5497C15.8153 12.5 17.835 12.5 21.8744 12.5M8.33268 25L4.16602 21.875" stroke="#F4F4F4" stroke-width="3" stroke-linecap="round" stroke-linejoin="round"/>
<path id="Vector_2" d="M37.5 33.3335V33.3543" stroke="#F4F4F4" stroke-width="3" stroke-linecap="round" stroke-linejoin="round"/>
<path id="Vector_3" d="M12.5 33.3335V33.3543" stroke="#F4F4F4" stroke-width="3" stroke-linecap="round" stroke-linejoin="round"/>
<path id="Vector_4" d="M35.4173 20.8332C40.0197 20.8332 43.7507 17.1022 43.7507 12.4998C43.7507 7.89746 40.0197 4.1665 35.4173 4.1665C30.8149 4.1665 27.084 7.89746 27.084 12.4998C27.084 17.1022 30.8149 20.8332 35.4173 20.8332Z" stroke="#F4F4F4" stroke-width="3" stroke-linecap="round" stroke-linejoin="round"/>
<path id="Vector_5" d="M35.416 8.3335V12.5002" stroke="#F4F4F4" stroke-width="3" stroke-linecap="round" stroke-linejoin="round"/>
<path id="Vector_6" d="M35.416 16.6455V16.6663" stroke="#F4F4F4" stroke-width="3" stroke-linecap="round" stroke-linejoin="round"/>
</g>
</svg>
