<svg width="60" height="60" viewBox="0 0 60 60" fill="none" xmlns="http://www.w3.org/2000/svg">
<g id="Frame">
<path id="Vector" d="M26.5908 14.7608C38.5265 10.6918 44.4943 8.6573 47.7043 11.8672C50.914 15.0771 48.8795 21.0449 44.8108 32.9807L42.0398 41.1087C38.915 50.2752 37.3525 54.8584 34.7768 55.2377C34.0845 55.3397 33.3678 55.2784 32.6825 55.0584C30.1345 54.2404 28.7875 49.4079 26.0935 39.7432C25.496 37.5994 25.1973 36.5274 24.5168 35.7087C24.3193 35.4712 24.1003 35.2522 23.8628 35.0547C23.044 34.3742 21.972 34.0754 19.8284 33.4779C10.1635 30.7839 5.33111 29.4369 4.51301 26.8888C4.29306 26.2037 4.23168 25.487 4.33366 24.7945C4.71296 22.2189 9.29623 20.6565 18.4628 17.5316L26.5908 14.7608Z" stroke="#F4F4F4" stroke-width="4"/>
</g>
</svg>
