<svg width="50" height="51" viewBox="0 0 50 51" fill="none" xmlns="http://www.w3.org/2000/svg">
<g id="Frame">
<path id="Vector" d="M15.625 41.1252C15.625 39.1135 16.3094 37.0785 17.9811 35.9593C19.9859 34.617 22.4008 33.8335 25 33.8335C27.5992 33.8335 30.0142 34.617 32.019 35.9593C33.6906 37.0785 34.375 39.1135 34.375 41.1252" stroke="#F4F4F4" stroke-width="3" stroke-linecap="round" stroke-linejoin="round"/>
<path id="Vector_2" d="M24.9993 28.6252C27.8758 28.6252 30.2077 26.2933 30.2077 23.4168C30.2077 20.5403 27.8758 18.2085 24.9993 18.2085C22.1229 18.2085 19.791 20.5403 19.791 23.4168C19.791 26.2933 22.1229 28.6252 24.9993 28.6252Z" stroke="#F4F4F4" stroke-width="3" stroke-linecap="round" stroke-linejoin="round"/>
<g id="Vector_3">
<path d="M36.459 23.4165C38.7717 23.4165 40.9204 24.2017 42.7036 25.5465C44.215 26.6865 44.7923 28.6146 44.7923 30.5078V30.7082" fill="#89031B"/>
<path d="M36.459 23.4165C38.7717 23.4165 40.9204 24.2017 42.7036 25.5465C44.215 26.6865 44.7923 28.6146 44.7923 30.5078V30.7082" stroke="#F4F4F4" stroke-width="3" stroke-linecap="round" stroke-linejoin="round"/>
</g>
<path id="Vector_4" d="M36.4577 18.2083C38.7589 18.2083 40.6243 16.3429 40.6243 14.0417C40.6243 11.7405 38.7589 9.875 36.4577 9.875C34.1565 9.875 32.291 11.7405 32.291 14.0417C32.291 16.3429 34.1565 18.2083 36.4577 18.2083Z" stroke="#F4F4F4" stroke-width="3" stroke-linecap="round" stroke-linejoin="round"/>
<g id="Vector_5">
<path d="M13.5423 23.4165C11.2295 23.4165 9.08078 24.2017 7.29765 25.5465C5.78619 26.6865 5.20898 28.6146 5.20898 30.5078V30.7082" fill="#89031B"/>
<path d="M13.5423 23.4165C11.2295 23.4165 9.08078 24.2017 7.29765 25.5465C5.78619 26.6865 5.20898 28.6146 5.20898 30.5078V30.7082" stroke="#F4F4F4" stroke-width="3" stroke-linecap="round" stroke-linejoin="round"/>
</g>
<path id="Vector_6" d="M13.5417 18.2083C15.8429 18.2083 17.7083 16.3429 17.7083 14.0417C17.7083 11.7405 15.8429 9.875 13.5417 9.875C11.2405 9.875 9.375 11.7405 9.375 14.0417C9.375 16.3429 11.2405 18.2083 13.5417 18.2083Z" stroke="#F4F4F4" stroke-width="3" stroke-linecap="round" stroke-linejoin="round"/>
</g>
</svg>
