<svg width="19" height="23" viewBox="0 0 19 23" fill="none" xmlns="http://www.w3.org/2000/svg">
<path d="M0 4.7142C0 3.96353 0.606473 3.35706 1.35714 3.35706H17.6429C18.3935 3.35706 19 3.96353 19 4.7142C19 5.46487 18.3935 6.07134 17.6429 6.07134H1.35714C0.606473 6.07134 0 5.46487 0 4.7142ZM0 11.4999C0 10.7492 0.606473 10.1428 1.35714 10.1428H17.6429C18.3935 10.1428 19 10.7492 19 11.4999C19 12.2506 18.3935 12.8571 17.6429 12.8571H1.35714C0.606473 12.8571 0 12.2506 0 11.4999ZM19 18.2856C19 19.0363 18.3935 19.6428 17.6429 19.6428H1.35714C0.606473 19.6428 0 19.0363 0 18.2856C0 17.535 0.606473 16.9285 1.35714 16.9285H17.6429C18.3935 16.9285 19 17.535 19 18.2856Z" fill="#F4F4F4"/>
</svg>
