<svg width="50" height="51" viewBox="0 0 50 51" fill="none" xmlns="http://www.w3.org/2000/svg">
<g id="Frame">
<path id="Vector" d="M14.584 38C10.7737 38.8577 8.33398 40.1756 8.33398 41.6535C8.33398 44.2381 15.7959 46.3333 25.0007 46.3333C34.2054 46.3333 41.6673 44.2381 41.6673 41.6535C41.6673 40.1756 39.2275 38.8577 35.4173 38" stroke="#F4F4F4" stroke-width="3" stroke-linecap="round"/>
<path id="Vector_2" d="M30.2077 19.2498C30.2077 22.1263 27.8758 24.4582 24.9993 24.4582C22.1229 24.4582 19.791 22.1263 19.791 19.2498C19.791 16.3734 22.1229 14.0415 24.9993 14.0415C27.8758 14.0415 30.2077 16.3734 30.2077 19.2498Z" stroke="#F4F4F4" stroke-width="3"/>
<path id="Vector_3" d="M27.6189 36.9448C26.9162 37.6215 25.9771 37.9998 24.9998 37.9998C24.0223 37.9998 23.0831 37.6215 22.3804 36.9448C15.9458 30.7098 7.32266 23.7446 11.5279 13.6326C13.8016 8.16509 19.2596 4.6665 24.9998 4.6665C30.7398 4.6665 36.1977 8.16511 38.4714 13.6326C42.6714 23.7319 34.0693 30.7313 27.6189 36.9448Z" stroke="#F4F4F4" stroke-width="3"/>
</g>
</svg>
