<svg width="60" height="60" viewBox="0 0 60 60" fill="none" xmlns="http://www.w3.org/2000/svg">
<g id="Frame">
<path id="Vector" d="M22.8963 14.2806L21.8896 12.0156C21.2314 10.5347 20.9023 9.7942 20.4101 9.22752C19.7933 8.51735 18.9893 7.99485 18.0898 7.71963C17.3721 7.5 16.5618 7.5 14.9411 7.5C12.5704 7.5 11.385 7.5 10.3899 7.95573C9.21778 8.49255 8.1592 9.6582 7.73743 10.8765C7.37938 11.9107 7.48195 12.9736 7.68705 15.0993C9.87038 37.7255 22.2752 50.1302 44.9013 52.3135C47.027 52.5187 48.09 52.6213 49.124 52.2633C50.3425 51.8415 51.508 50.7827 52.045 49.6107C52.5005 48.6155 52.5005 47.4302 52.5005 45.0595C52.5005 43.4387 52.5005 42.6285 52.281 41.9107C52.0058 41.0112 51.4833 40.2072 50.773 39.5905C50.2065 39.0982 49.466 38.7693 47.985 38.111L45.72 37.1042C44.1163 36.3915 43.3143 36.0352 42.4995 35.9577C41.7195 35.8835 40.9333 35.993 40.2033 36.2772C39.4405 36.5742 38.7665 37.136 37.418 38.2595C36.076 39.378 35.405 39.9372 34.585 40.2367C33.858 40.5022 32.897 40.6008 32.1315 40.4878C31.2678 40.3605 30.6065 40.0073 29.2838 39.3003C25.1688 37.1013 22.8994 34.832 20.7003 30.7168C19.9935 29.3943 19.6401 28.7328 19.5128 27.8693C19.4 27.1035 19.4983 26.1425 19.7639 25.4157C20.0634 24.5957 20.6226 23.9246 21.7411 22.5825C22.8647 21.2342 23.4265 20.5601 23.7235 19.7973C24.0077 19.0674 24.1172 18.281 24.043 17.5012C23.9655 16.6863 23.6091 15.8844 22.8963 14.2806Z" stroke="#F4F4F4" stroke-width="4" stroke-linecap="round"/>
</g>
</svg>
